<?xml version="1.0" encoding="UTF-8"?>
<svg id="Layer_2" data-name="Layer 2" xmlns="http://www.w3.org/2000/svg" viewBox="0 0 87.03 38.5">
  <defs>
    <style>
      .cls-1 {
        fill: #0f2972;
      }
    </style>
  </defs>
  <g id="chat">
    <g>
      <path class="cls-1" d="M75.39,37.95c-1.93-.08-3.88-.15-5.78-.34,.92-.14,1.84-.23,2.8-.35,.25-.03,.49-.07,.74-.11,.13-.02,.25-.05,.38-.08,.15-.05,.24-.04,.5-.2,.01,0,.04-.03,.07-.06,.02-.03,.05-.05,.08-.11,.07-.08,.09-.34,.01-.45-.13-.23-.22-.23-.28-.27-.11-.05-.18-.07-.26-.09-.14-.04-.27-.06-.4-.08-.26-.04-.5-.07-.75-.09-.99-.09-1.96-.14-2.93-.17-1.95-.07-3.89-.09-5.84-.09-3.89,0-7.78,.08-11.67,.27-1.95,.09-3.89,.2-5.84,.36-1.94,.17-3.86,.34-5.79,.47-.45,.03-.9,.06-1.35,.09,.06-.06,.12-.15,.19-.3,.06-.15,.09-.31,.05-.51-.04-.2-.12-.32-.19-.42-.14-.16-.25-.21-.31-.25-.14-.07-.2-.08-.27-.1-.23-.06-.36-.06-.51-.08-.55-.04-1.04-.03-1.54-.03-3.93,.11-7.79,.48-11.64,.72-1.9,.09-3.84,.1-5.74-.06-.95-.09-1.91-.18-2.84-.37-.92-.19-1.89-.45-2.65-.93,0,0-2.01-3.18-2.73-5.61-.08-.14-.09-.25,0-.39,.11-.19,.19-.4,.25-.62,.21-.8,.19-1.62,.11-2.52-.21,.43-.49,.7-.9,.85,.36-3.16-.03-6.23-.79-9.28-.18,1.14-.78,2.05-1.47,2.94,.88-4.55,.91-9.08-.34-13.58-.27,1.04-.57,2.05-1.29,2.89,.02-.1,.04-.2,.06-.3,.02-.1,.04-.2,.06-.3,.3-1.67,.37-3.34-.05-5-.28-1.08-.72-2.08-1.58-2.82-.19-.16-.4-.29-.62-.4-.54-.27-1.05-.21-1.55,.14C1.83,.98,1.23,1.89,.8,2.93,.32,4.08,.09,5.29,0,6.53c-.07,1.04,.4,1.82,1.17,2.44,.24,.2,.52,.35,.84,.56-.75-.05-1.3-.44-1.91-.81-.01,.29-.04,.55-.03,.8,.05,1.47,.42,2.88,.92,4.26,.23,.63,.77,1.04,1.28,1.45,.39,.31,.81,.6,1.2,.92-.88-.15-1.57-.72-2.35-1.12,1.02,1.59,2.47,2.76,3.9,3.99-.45,.15-.85,.05-1.25-.09-.8-.28-1.5-.76-2.19-1.23-.17-.12-.34-.23-.51-.35-.02,.02-.04,.03-.03,.04,.53,1.55,1.26,2.97,2.48,4.08,.85,.78,1.36,1.02,2.77,1.37-.49,.33-1.34,.5-2.12,.14,.37,.89,.88,1.63,1.56,2.26,.69,.63,1.47,1.09,2.42,1.34-.44,.28-.9,.28-1.36,.28,.49,.38,1.1,.38,1.74,.49-.25,.2-.45,.36-.67,.54,.29,0,.57,.01,.93,.02-.26,.31-.48,.58-.69,.85,.26,.08,.41,.01,1.07-.45-.06,.43,.16,.7,.48,.93,.05-.17,.09-.33,.14-.52,.41,.78,.77,1.55,1.21,2.27,1.63,2.66,1.82,2.92,2.34,3.42,.03,.03,.05,.06,.09,.09,.01,.01,.03,.02,.04,.03,0,0,0,0,0,0,0,0,0,0,0,0,.39,.33,.81,.54,1.24,.73,.45,.2,.92,.36,1.39,.51,.95,.29,1.91,.5,2.88,.65,1.95,.3,3.9,.43,5.88,.48,3.12,0,6.23-.14,9.31-.2-.03,.04-.1,.12-.13,.19-.02,.03-.06,.13-.08,.19-.02,.07-.04,.14-.04,.26,0,.21,.06,.39,.16,.55,.05,.07,.08,.1,.12,.15,.04,.04,.1,.09,.12,.11,.27,.19,.38,.19,.49,.22,.21,.05,.35,.06,.5,.08,.29,.02,.55,.03,.8,.03,.51,0,1.01-.02,1.5-.05,.99-.05,1.96-.13,2.93-.22,1.94-.18,3.88-.41,5.8-.63,1.92-.21,3.84-.38,5.77-.52,3.86-.27,7.73-.44,11.6-.52,1.94-.04,3.87-.06,5.8-.04,.54,0,1.07,.02,1.61,.04-.59,.08-1.17,.17-1.76,.28-.24,.05-.49,.1-.73,.16-.12,.03-.25,.06-.38,.11-.07,.02-.14,.05-.22,.1-.04,.03-.1,.05-.17,.13-.03,.04-.1,.12-.11,.25-.01,.13,.05,.26,.1,.31,.19,.18,.25,.16,.33,.2,.08,.02,.14,.04,.21,.05,.13,.03,.26,.05,.39,.06,.25,.03,.5,.05,.74,.07,1.96,.13,3.9,.15,5.84,.17,3.88,.03,7.77,.01,11.65,0v-.17c-3.88-.1-7.76-.19-11.63-.34Zm-39.89,.02s0,0,0,0h0Z"/>
      <polygon class="cls-1" points="13.45 34.51 13.44 34.5 13.44 34.5 13.45 34.51"/>
    </g>
  </g>
</svg>