<?xml version="1.0" encoding="UTF-8"?>
<svg id="Layer_2" data-name="Layer 2" xmlns="http://www.w3.org/2000/svg" viewBox="0 0 19.4 18.77">
  <defs>
    <style>
      .cls-1 {
        fill: #0f2972;
      }
    </style>
  </defs>
  <g id="chat">
    <path class="cls-1" d="M0,8.78c.7-.4,1.39-.8,2.09-1.19,.11-.06,.26-.1,.39-.1,1.16,.02,2.31,.06,3.47,.09,.06,0,.12,0,.25,0-.1-.07-.15-.1-.21-.13-1.34-.83-2.68-1.66-4.03-2.48-.12-.08-.18-.16-.18-.31,0-1.47,0-2.94,0-4.41,0-.07,0-.15,0-.23h1.22c0,.07,0,.14,0,.22,0,1.26,0,2.51,0,3.77,0,.08,.04,.19,.1,.23,1.2,.75,2.41,1.5,3.62,2.24,.03,.02,.05,.03,.09,.04-.37-1.56,.04-2.82,1.45-3.62,1.06-.61,2.17-.54,3.16,.17,1.19,.84,1.52,2.03,1.17,3.45,.06-.04,.12-.06,.17-.1,1.16-.71,2.31-1.43,3.47-2.13,.13-.08,.17-.17,.17-.32,0-1.24,0-2.49,0-3.73,0-.07,0-.14,0-.22h1.22c0,.08,0,.14,0,.21,0,1.48,0,2.97,0,4.45,0,.14-.05,.21-.16,.28-1.35,.82-2.69,1.65-4.03,2.48-.06,.04-.11,.07-.17,.15,.06,0,.13,0,.19,0,1.16-.03,2.32-.06,3.48-.09,.11,0,.24,.03,.34,.08,.7,.39,1.4,.8,2.12,1.21-.2,.36-.4,.7-.61,1.06-.54-.31-1.07-.59-1.58-.91-.28-.18-.56-.23-.89-.21-1,.05-1.99,.06-2.99,.09-.06,0-.12,0-.22,.01,.1,.06,.16,.1,.22,.14,1.72,1.01,3.44,2.02,5.16,3.02,.1,.06,.16,.11,.16,.24,0,2.13,0,4.26-.01,6.38,0,.05,0,.1-.01,.16h-1.22c0-.09,0-.17,0-.25,0-1.84,.01-3.69,.02-5.53,0-.15-.04-.24-.18-.31-.93-.54-1.86-1.09-2.79-1.63-.05-.03-.11-.06-.16-.09,.77,2.44,.26,4.51-1.87,5.97-1.76,1.2-3.68,1.2-5.44-.01-2.09-1.44-2.6-3.48-1.89-5.88-.05,.02-.1,.04-.14,.07-.94,.53-1.88,1.06-2.82,1.59-.12,.07-.16,.14-.16,.28,.01,1.85,.02,3.7,.02,5.55,0,.07,0,.15,0,.24H.76c0-.07,0-.13,0-.2,0-2.1,0-4.21-.01-6.31,0-.14,.04-.21,.16-.28,1.78-1,3.56-2,5.34-3.01,.07-.04,.13-.07,.23-.13-.07-.01-.11-.02-.14-.02-1.19-.04-2.37-.07-3.56-.1-.12,0-.25,.03-.35,.09-.6,.34-1.2,.69-1.81,1.03C.41,9.49,.2,9.15,0,8.82c0-.01,0-.03,0-.04Z"/>
  </g>
</svg>